<?xml version="1.0" standalone="no"?>
<!DOCTYPE svg PUBLIC "-//W3C//DTD SVG 20010904//EN"
 "http://www.w3.org/TR/2001/REC-SVG-20010904/DTD/svg10.dtd">
<svg version="1.0" xmlns="http://www.w3.org/2000/svg"
 width="626.000000pt" height="293.000000pt" viewBox="0 0 626.000000 293.000000"
 preserveAspectRatio="xMidYMid meet">

<g transform="translate(0.000000,293.000000) scale(0.100000,-0.100000)"
fill="#000000" stroke="none">
<path d="M2080 2225 c0 -118 1 -125 20 -125 18 0 20 7 20 68 0 72 10 92 45 92
35 0 45 -20 45 -92 0 -61 2 -68 20 -68 18 0 20 7 20 75 0 62 -4 79 -20 95 -21
21 -74 27 -85 10 -13 -22 -25 -8 -25 30 0 33 -3 40 -20 40 -19 0 -20 -7 -20
-125z"/>
<path d="M1870 2325 c0 -10 11 -15 35 -15 l35 0 0 -105 c0 -98 1 -105 20 -105
19 0 20 7 20 105 l0 105 35 0 c24 0 35 5 35 15 0 12 -17 15 -90 15 -73 0 -90
-3 -90 -15z"/>
<path d="M2637 2329 c-73 -17 -117 -69 -117 -139 0 -147 241 -189 305 -53 35
73 -12 173 -89 188 -17 4 -38 8 -46 10 -8 1 -32 -1 -53 -6z"/>
<path d="M2315 2265 c-19 -18 -25 -35 -25 -69 0 -37 5 -48 31 -70 37 -31 77
-33 113 -5 46 36 21 56 -30 23 -31 -21 -74 -6 -74 26 0 18 6 20 70 20 62 0 70
2 70 19 0 11 -12 33 -26 50 -34 41 -92 44 -129 6z m99 -21 c26 -26 18 -34 -34
-34 -34 0 -50 4 -50 13 0 35 56 50 84 21z"/>
<path d="M1056 1984 c-251 -56 -448 -247 -513 -494 -22 -85 -22 -235 0 -320
98 -377 491 -595 856 -474 45 15 112 46 150 69 l69 43 58 -59 58 -59 18 32
c21 41 23 127 3 174 -22 52 -218 249 -278 279 -64 32 -127 33 -174 4 l-35 -22
92 -92 92 -92 -45 -26 c-25 -15 -71 -34 -103 -42 -255 -66 -502 96 -547 360
-22 128 26 276 121 373 132 135 350 170 521 83 72 -37 148 -117 188 -198 34
-68 38 -85 41 -172 3 -76 0 -108 -15 -153 l-20 -57 82 -81 c92 -91 88 -91 128
1 42 96 52 149 52 274 0 136 -19 211 -81 322 -137 247 -447 388 -718 327z"/>
<path d="M2387 1966 c-50 -18 -112 -62 -143 -100 l-24 -31 0 68 0 67 -140 0
-140 0 0 -395 0 -395 140 0 140 0 0 205 c0 167 3 212 16 236 22 43 83 69 167
69 l67 0 0 145 c0 144 0 145 -22 145 -13 -1 -40 -7 -61 -14z"/>
<path d="M3172 1961 c-107 -40 -184 -110 -230 -209 -56 -123 -37 -316 42 -424
171 -230 581 -198 706 55 106 215 27 464 -178 560 -61 29 -78 32 -177 34 -89
3 -120 0 -163 -16z m202 -225 c44 -18 74 -58 82 -112 17 -118 -32 -203 -122
-211 -95 -8 -144 47 -144 161 0 85 20 131 71 158 40 22 68 23 113 4z"/>
<path d="M4942 1961 c-72 -25 -122 -67 -154 -131 -31 -60 -35 -113 -14 -173
29 -79 89 -117 248 -156 140 -34 158 -43 158 -79 0 -40 -17 -52 -77 -52 -44 0
-59 5 -78 25 -14 13 -25 31 -25 40 0 13 -20 15 -136 15 l-136 0 7 -32 c53
-245 471 -335 648 -139 78 87 72 223 -14 295 -48 41 -76 52 -204 86 -120 31
-155 49 -155 80 0 71 152 63 175 -10 6 -19 16 -20 130 -20 l124 0 -15 51 c-30
102 -95 168 -197 203 -67 22 -216 21 -285 -3z"/>
<path d="M2540 1575 l0 -395 140 0 140 0 0 395 0 395 -140 0 -140 0 0 -395z"/>
<path d="M3832 1683 c3 -268 4 -291 24 -334 52 -111 140 -169 260 -169 90 0
151 21 208 72 l46 40 0 -56 0 -56 135 0 135 0 0 395 0 395 -135 0 -135 0 0
-227 c0 -204 -2 -232 -20 -271 -31 -68 -120 -93 -187 -52 -59 36 -63 54 -63
315 l0 235 -136 0 -135 0 3 -287z"/>
<path d="M1940 895 l0 -235 1815 0 1815 0 0 235 0 235 -1815 0 -1815 0 0 -235z
m2841 175 c45 -13 68 -38 75 -82 5 -27 1 -40 -20 -65 -22 -26 -23 -32 -11 -37
21 -8 46 -70 39 -93 -24 -73 -44 -83 -179 -83 l-105 0 0 185 0 185 83 0 c45 0
98 -5 118 -10z m351 -88 c33 -19 68 -85 68 -128 0 -16 -10 -50 -22 -74 -18
-36 -33 -49 -69 -64 -121 -49 -237 43 -213 170 8 46 56 101 98 114 40 12 101
4 138 -18z m185 -23 l27 -41 24 41 c22 38 27 41 69 41 33 0 42 -3 37 -12 -4
-7 -25 -39 -46 -70 -21 -31 -38 -60 -38 -63 0 -3 17 -32 38 -63 21 -31 42 -63
46 -69 5 -10 -5 -13 -38 -13 -42 0 -48 3 -72 40 l-27 41 -24 -41 c-22 -37 -27
-40 -69 -40 l-45 0 37 58 c20 31 41 64 47 73 7 12 0 30 -30 75 -22 32 -43 65
-47 72 -5 9 5 12 38 12 42 0 48 -3 73 -41z"/>
<path d="M4660 969 l0 -40 53 3 c46 3 52 6 55 26 5 35 -15 52 -64 52 l-44 0 0
-41z"/>
<path d="M4660 815 l0 -45 41 0 c52 0 79 15 79 43 0 35 -19 47 -72 47 l-48 0
0 -45z"/>
<path d="M5030 932 c-34 -11 -50 -35 -50 -78 0 -34 5 -47 26 -63 15 -12 32
-21 39 -21 7 0 24 9 39 21 59 46 15 163 -54 141z"/>
</g>
</svg>
